<mxfile host="app.diagrams.net" modified="2024-02-27T04:16:30.767Z" agent="Mozilla/5.0 (Macintosh; Intel Mac OS X 10_15_7) AppleWebKit/605.1.15 (KHTML, like Gecko) Version/17.2 Safari/605.1.15" version="23.1.7" etag="RZOQDA2C8av8PVy5gDsd" type="github">
  <diagram name="第 1 页" id="kh9tsAmsM2WiclFmBR34">
    <mxGraphModel>
      <root>
        <mxCell id="0" />
        <mxCell id="1" parent="0" />
      </root>
    </mxGraphModel>
  </diagram>
</mxfile>
